<mxfile modified="2023-12-18T07:29:49.753Z" host="app.diagrams.net" agent="Mozilla/5.0 (Windows NT 10.0; Win64; x64) AppleWebKit/537.36 (KHTML, like Gecko) Chrome/120.0.0.0 Safari/537.36 Edg/120.0.0.0" etag="r9dcblHhpwvXyYAY7Mzn" version="22.1.11" type="device">
  <diagram id="WI9T0HZ2pTsCkuznbFz-" name="Page-1">
    <mxGraphModel dx="1042" dy="617" grid="1" gridSize="10" guides="1" tooltips="1" connect="1" arrows="1" fold="1" page="1" pageScale="1" pageWidth="1169" pageHeight="827" math="0" shadow="0">
      <root>
        <mxCell id="0" />
        <mxCell id="1" parent="0" />
        <mxCell id="LJgovYq5bUpr1Cc1gvmX-41" value="" style="edgeStyle=orthogonalEdgeStyle;rounded=0;orthogonalLoop=1;jettySize=auto;html=1;" parent="1" source="WbrIDUTmsiPOCBeC4pwk-23" edge="1">
          <mxGeometry relative="1" as="geometry">
            <mxPoint x="584" y="680" as="targetPoint" />
          </mxGeometry>
        </mxCell>
        <mxCell id="WbrIDUTmsiPOCBeC4pwk-23" value="&lt;font style=&quot;font-size: 24px;&quot;&gt;Pipeline&lt;/font&gt;" style="swimlane;childLayout=stackLayout;horizontal=1;fillColor=none;horizontalStack=1;resizeParent=1;resizeParentMax=0;resizeLast=0;collapsible=0;strokeColor=none;stackBorder=10;stackSpacing=-12;resizable=1;align=center;points=[];whiteSpace=wrap;html=1;" parent="1" vertex="1">
          <mxGeometry x="36.37" y="460" width="1094.5" height="180" as="geometry" />
        </mxCell>
        <mxCell id="LJgovYq5bUpr1Cc1gvmX-25" value="" style="image;aspect=fixed;perimeter=ellipsePerimeter;html=1;align=center;shadow=0;dashed=0;spacingTop=3;image=img/lib/active_directory/folder.svg;" parent="WbrIDUTmsiPOCBeC4pwk-23" vertex="1">
          <mxGeometry x="10" y="33" width="36.5" height="137" as="geometry" />
        </mxCell>
        <mxCell id="WbrIDUTmsiPOCBeC4pwk-24" value="&lt;font style=&quot;font-size: 16px;&quot;&gt;&lt;b&gt;Stage_01: &lt;/b&gt;&lt;br&gt;&lt;br&gt;Data Ingestion&lt;/font&gt;" style="shape=step;perimeter=stepPerimeter;fixedSize=1;points=[];whiteSpace=wrap;html=1;spacing=4;" parent="WbrIDUTmsiPOCBeC4pwk-23" vertex="1">
          <mxGeometry x="34.5" y="33" width="200" height="137" as="geometry" />
        </mxCell>
        <mxCell id="LJgovYq5bUpr1Cc1gvmX-26" value="" style="image;aspect=fixed;perimeter=ellipsePerimeter;html=1;align=center;shadow=0;dashed=0;spacingTop=3;image=img/lib/active_directory/folder.svg;" parent="WbrIDUTmsiPOCBeC4pwk-23" vertex="1">
          <mxGeometry x="222.5" y="33" width="36.5" height="137" as="geometry" />
        </mxCell>
        <mxCell id="WbrIDUTmsiPOCBeC4pwk-30" value="&lt;font style=&quot;font-size: 16px;&quot;&gt;&lt;b&gt;Stage_02: &lt;/b&gt;&lt;br&gt;&lt;br&gt;Data Validation&lt;br&gt;&lt;/font&gt;" style="shape=step;perimeter=stepPerimeter;fixedSize=1;points=[];whiteSpace=wrap;html=1;" parent="WbrIDUTmsiPOCBeC4pwk-23" vertex="1">
          <mxGeometry x="247" y="33" width="200" height="137" as="geometry" />
        </mxCell>
        <mxCell id="LJgovYq5bUpr1Cc1gvmX-27" value="" style="image;aspect=fixed;perimeter=ellipsePerimeter;html=1;align=center;shadow=0;dashed=0;spacingTop=3;image=img/lib/active_directory/folder.svg;" parent="WbrIDUTmsiPOCBeC4pwk-23" vertex="1">
          <mxGeometry x="435" y="33" width="36.5" height="137" as="geometry" />
        </mxCell>
        <mxCell id="WbrIDUTmsiPOCBeC4pwk-29" value="&lt;font style=&quot;font-size: 16px;&quot;&gt;&lt;b&gt;Stage_03: &lt;/b&gt;&lt;br&gt;&lt;br&gt;Data Transformation&lt;/font&gt;" style="shape=step;perimeter=stepPerimeter;fixedSize=1;points=[];whiteSpace=wrap;html=1;" parent="WbrIDUTmsiPOCBeC4pwk-23" vertex="1">
          <mxGeometry x="459.5" y="33" width="200" height="137" as="geometry" />
        </mxCell>
        <mxCell id="LJgovYq5bUpr1Cc1gvmX-28" value="" style="image;aspect=fixed;perimeter=ellipsePerimeter;html=1;align=center;shadow=0;dashed=0;spacingTop=3;image=img/lib/active_directory/folder.svg;" parent="WbrIDUTmsiPOCBeC4pwk-23" vertex="1">
          <mxGeometry x="647.5" y="33" width="36.5" height="137" as="geometry" />
        </mxCell>
        <mxCell id="WbrIDUTmsiPOCBeC4pwk-32" value="&lt;font style=&quot;font-size: 16px;&quot;&gt;&lt;b&gt;Stage_04: &lt;/b&gt;&lt;br&gt;&lt;br&gt;Model Development&lt;/font&gt;" style="shape=step;perimeter=stepPerimeter;fixedSize=1;points=[];whiteSpace=wrap;html=1;" parent="WbrIDUTmsiPOCBeC4pwk-23" vertex="1">
          <mxGeometry x="672" y="33" width="200" height="137" as="geometry" />
        </mxCell>
        <mxCell id="LJgovYq5bUpr1Cc1gvmX-29" value="" style="image;aspect=fixed;perimeter=ellipsePerimeter;html=1;align=center;shadow=0;dashed=0;spacingTop=3;image=img/lib/active_directory/folder.svg;" parent="WbrIDUTmsiPOCBeC4pwk-23" vertex="1">
          <mxGeometry x="860" y="33" width="36.5" height="137" as="geometry" />
        </mxCell>
        <mxCell id="WbrIDUTmsiPOCBeC4pwk-31" value="&lt;font style=&quot;font-size: 16px;&quot;&gt;&lt;b&gt;Stage_05: &lt;/b&gt;&lt;br&gt;&lt;br&gt;Model Evaluation&lt;/font&gt;" style="shape=step;perimeter=stepPerimeter;fixedSize=1;points=[];whiteSpace=wrap;html=1;" parent="WbrIDUTmsiPOCBeC4pwk-23" vertex="1">
          <mxGeometry x="884.5" y="33" width="200" height="137" as="geometry" />
        </mxCell>
        <mxCell id="LJgovYq5bUpr1Cc1gvmX-4" value="" style="dashed=0;outlineConnect=0;html=1;align=center;labelPosition=center;verticalLabelPosition=bottom;verticalAlign=top;shape=mxgraph.weblogos.github;aspect=fixed;" parent="1" vertex="1">
          <mxGeometry x="1069" width="100" height="100" as="geometry" />
        </mxCell>
        <mxCell id="LJgovYq5bUpr1Cc1gvmX-59" value="" style="edgeStyle=orthogonalEdgeStyle;rounded=0;orthogonalLoop=1;jettySize=auto;html=1;" parent="1" source="LJgovYq5bUpr1Cc1gvmX-7" target="LJgovYq5bUpr1Cc1gvmX-57" edge="1">
          <mxGeometry relative="1" as="geometry" />
        </mxCell>
        <mxCell id="LJgovYq5bUpr1Cc1gvmX-7" value="" style="image;aspect=fixed;perimeter=ellipsePerimeter;html=1;align=center;shadow=0;dashed=0;spacingTop=3;image=img/lib/active_directory/folder.svg;" parent="1" vertex="1">
          <mxGeometry x="566" y="220" width="36.5" height="50" as="geometry" />
        </mxCell>
        <mxCell id="LJgovYq5bUpr1Cc1gvmX-58" value="" style="edgeStyle=orthogonalEdgeStyle;rounded=0;orthogonalLoop=1;jettySize=auto;html=1;" parent="1" source="LJgovYq5bUpr1Cc1gvmX-2" edge="1">
          <mxGeometry relative="1" as="geometry">
            <mxPoint x="584" y="190" as="targetPoint" />
          </mxGeometry>
        </mxCell>
        <mxCell id="LJgovYq5bUpr1Cc1gvmX-2" value="" style="image;aspect=fixed;html=1;points=[];align=center;fontSize=12;image=img/lib/azure2/general/Code.svg;imageBackground=none;noLabel=0;metaEdit=0;" parent="1" vertex="1">
          <mxGeometry x="551.62" y="100" width="64" height="52" as="geometry" />
        </mxCell>
        <mxCell id="LJgovYq5bUpr1Cc1gvmX-34" value="&lt;font style=&quot;font-size: 16px;&quot;&gt;&lt;b&gt;Source Code&lt;/b&gt;&lt;br&gt;(Jupyter Notebook)&lt;br&gt;&lt;/font&gt;" style="text;html=1;strokeColor=none;fillColor=none;align=center;verticalAlign=middle;whiteSpace=wrap;rounded=0;" parent="1" vertex="1">
          <mxGeometry x="483.32" y="60" width="202.63" height="30" as="geometry" />
        </mxCell>
        <mxCell id="LJgovYq5bUpr1Cc1gvmX-42" value="&lt;b&gt;&lt;font style=&quot;font-size: 16px;&quot;&gt;src&lt;/font&gt;&lt;/b&gt;" style="text;html=1;strokeColor=none;fillColor=none;align=center;verticalAlign=middle;whiteSpace=wrap;rounded=0;" parent="1" vertex="1">
          <mxGeometry x="506.74" y="190" width="153.75" height="30" as="geometry" />
        </mxCell>
        <mxCell id="LJgovYq5bUpr1Cc1gvmX-44" value="" style="image;aspect=fixed;perimeter=ellipsePerimeter;html=1;align=center;shadow=0;dashed=0;spacingTop=3;image=img/lib/active_directory/folder.svg;" parent="1" vertex="1">
          <mxGeometry x="326.37" y="350" width="36.5" height="50" as="geometry" />
        </mxCell>
        <mxCell id="LJgovYq5bUpr1Cc1gvmX-45" value="" style="image;aspect=fixed;perimeter=ellipsePerimeter;html=1;align=center;shadow=0;dashed=0;spacingTop=3;image=img/lib/active_directory/folder.svg;" parent="1" vertex="1">
          <mxGeometry x="807.37" y="350" width="36.5" height="50" as="geometry" />
        </mxCell>
        <mxCell id="LJgovYq5bUpr1Cc1gvmX-46" value="" style="image;aspect=fixed;perimeter=ellipsePerimeter;html=1;align=center;shadow=0;dashed=0;spacingTop=3;image=img/lib/active_directory/folder.svg;" parent="1" vertex="1">
          <mxGeometry x="166" y="350" width="36.5" height="50" as="geometry" />
        </mxCell>
        <mxCell id="LJgovYq5bUpr1Cc1gvmX-67" value="" style="edgeStyle=orthogonalEdgeStyle;rounded=0;orthogonalLoop=1;jettySize=auto;html=1;entryX=0.5;entryY=-0.009;entryDx=0;entryDy=0;entryPerimeter=0;" parent="1" target="WbrIDUTmsiPOCBeC4pwk-23" edge="1">
          <mxGeometry relative="1" as="geometry">
            <mxPoint x="664.6199999999997" y="400.0000000000001" as="sourcePoint" />
            <Array as="points">
              <mxPoint x="665" y="420" />
              <mxPoint x="584" y="420" />
            </Array>
          </mxGeometry>
        </mxCell>
        <mxCell id="LJgovYq5bUpr1Cc1gvmX-48" value="" style="image;aspect=fixed;perimeter=ellipsePerimeter;html=1;align=center;shadow=0;dashed=0;spacingTop=3;image=img/lib/active_directory/folder.svg;" parent="1" vertex="1">
          <mxGeometry x="967.37" y="350" width="36.5" height="50" as="geometry" />
        </mxCell>
        <mxCell id="LJgovYq5bUpr1Cc1gvmX-49" value="&lt;b&gt;&lt;font style=&quot;font-size: 16px;&quot;&gt;config&lt;/font&gt;&lt;/b&gt;" style="text;html=1;strokeColor=none;fillColor=none;align=center;verticalAlign=middle;whiteSpace=wrap;rounded=0;" parent="1" vertex="1">
          <mxGeometry x="260.05" y="320" width="153.75" height="30" as="geometry" />
        </mxCell>
        <mxCell id="LJgovYq5bUpr1Cc1gvmX-50" value="&lt;b&gt;&lt;font style=&quot;font-size: 16px;&quot;&gt;constants&lt;/font&gt;&lt;/b&gt;" style="text;html=1;strokeColor=none;fillColor=none;align=center;verticalAlign=middle;whiteSpace=wrap;rounded=0;" parent="1" vertex="1">
          <mxGeometry x="753.05" y="320" width="153.75" height="30" as="geometry" />
        </mxCell>
        <mxCell id="LJgovYq5bUpr1Cc1gvmX-52" value="&lt;b&gt;&lt;font style=&quot;font-size: 16px;&quot;&gt;entity&lt;/font&gt;&lt;/b&gt;" style="text;html=1;strokeColor=none;fillColor=none;align=center;verticalAlign=middle;whiteSpace=wrap;rounded=0;" parent="1" vertex="1">
          <mxGeometry x="96.05" y="320" width="153.75" height="30" as="geometry" />
        </mxCell>
        <mxCell id="LJgovYq5bUpr1Cc1gvmX-53" value="&lt;b&gt;&lt;font style=&quot;font-size: 16px;&quot;&gt;pipeline&lt;/font&gt;&lt;/b&gt;" style="text;html=1;strokeColor=none;fillColor=none;align=center;verticalAlign=middle;whiteSpace=wrap;rounded=0;" parent="1" vertex="1">
          <mxGeometry x="589.05" y="320" width="153.75" height="30" as="geometry" />
        </mxCell>
        <mxCell id="LJgovYq5bUpr1Cc1gvmX-54" value="&lt;b&gt;&lt;font style=&quot;font-size: 16px;&quot;&gt;utils&lt;/font&gt;&lt;/b&gt;" style="text;html=1;strokeColor=none;fillColor=none;align=center;verticalAlign=middle;whiteSpace=wrap;rounded=0;" parent="1" vertex="1">
          <mxGeometry x="917.43" y="320" width="153.75" height="30" as="geometry" />
        </mxCell>
        <mxCell id="LJgovYq5bUpr1Cc1gvmX-55" value="&lt;font style=&quot;font-size: 42px;&quot;&gt;&lt;b&gt;Code Refactoring&lt;/b&gt;&lt;/font&gt;" style="text;html=1;strokeColor=none;fillColor=none;align=left;verticalAlign=middle;whiteSpace=wrap;rounded=0;" parent="1" vertex="1">
          <mxGeometry width="390" height="60" as="geometry" />
        </mxCell>
        <mxCell id="LJgovYq5bUpr1Cc1gvmX-56" value="" style="image;aspect=fixed;perimeter=ellipsePerimeter;html=1;align=center;shadow=0;dashed=0;spacingTop=3;image=img/lib/active_directory/folder.svg;" parent="1" vertex="1">
          <mxGeometry x="486.37" y="350" width="36.5" height="50" as="geometry" />
        </mxCell>
        <mxCell id="LJgovYq5bUpr1Cc1gvmX-57" value="&lt;span style=&quot;font-size: 16px;&quot;&gt;&lt;b&gt;components&lt;/b&gt;&lt;/span&gt;" style="text;html=1;strokeColor=none;fillColor=none;align=center;verticalAlign=middle;whiteSpace=wrap;rounded=0;" parent="1" vertex="1">
          <mxGeometry x="425.05" y="320" width="153.75" height="30" as="geometry" />
        </mxCell>
        <mxCell id="LJgovYq5bUpr1Cc1gvmX-60" value="" style="edgeStyle=orthogonalEdgeStyle;rounded=0;orthogonalLoop=1;jettySize=auto;html=1;exitX=0.5;exitY=1;exitDx=0;exitDy=0;" parent="1" source="LJgovYq5bUpr1Cc1gvmX-7" edge="1">
          <mxGeometry relative="1" as="geometry">
            <mxPoint x="226.74" y="280" as="sourcePoint" />
            <mxPoint x="180" y="320" as="targetPoint" />
          </mxGeometry>
        </mxCell>
        <mxCell id="LJgovYq5bUpr1Cc1gvmX-62" value="" style="edgeStyle=orthogonalEdgeStyle;rounded=0;orthogonalLoop=1;jettySize=auto;html=1;exitX=0.5;exitY=1;exitDx=0;exitDy=0;" parent="1" source="LJgovYq5bUpr1Cc1gvmX-7" edge="1">
          <mxGeometry relative="1" as="geometry">
            <mxPoint x="390" y="280" as="sourcePoint" />
            <mxPoint x="343.26" y="320" as="targetPoint" />
          </mxGeometry>
        </mxCell>
        <mxCell id="LJgovYq5bUpr1Cc1gvmX-65" value="" style="edgeStyle=orthogonalEdgeStyle;rounded=0;orthogonalLoop=1;jettySize=auto;html=1;exitX=0.5;exitY=1;exitDx=0;exitDy=0;entryX=0.5;entryY=0;entryDx=0;entryDy=0;" parent="1" source="LJgovYq5bUpr1Cc1gvmX-7" target="LJgovYq5bUpr1Cc1gvmX-50" edge="1">
          <mxGeometry relative="1" as="geometry">
            <mxPoint x="594" y="290" as="sourcePoint" />
            <mxPoint x="512" y="330" as="targetPoint" />
          </mxGeometry>
        </mxCell>
        <mxCell id="LJgovYq5bUpr1Cc1gvmX-66" value="" style="edgeStyle=orthogonalEdgeStyle;rounded=0;orthogonalLoop=1;jettySize=auto;html=1;entryX=0.5;entryY=0;entryDx=0;entryDy=0;exitX=0.5;exitY=1;exitDx=0;exitDy=0;" parent="1" source="LJgovYq5bUpr1Cc1gvmX-7" target="LJgovYq5bUpr1Cc1gvmX-54" edge="1">
          <mxGeometry relative="1" as="geometry">
            <mxPoint x="640" y="270" as="sourcePoint" />
            <mxPoint x="522" y="340" as="targetPoint" />
          </mxGeometry>
        </mxCell>
        <mxCell id="LJgovYq5bUpr1Cc1gvmX-68" value="" style="edgeStyle=orthogonalEdgeStyle;rounded=0;orthogonalLoop=1;jettySize=auto;html=1;entryX=0.5;entryY=0;entryDx=0;entryDy=0;exitX=0.5;exitY=1;exitDx=0;exitDy=0;" parent="1" source="LJgovYq5bUpr1Cc1gvmX-7" target="LJgovYq5bUpr1Cc1gvmX-53" edge="1">
          <mxGeometry relative="1" as="geometry">
            <mxPoint x="594" y="280" as="sourcePoint" />
            <mxPoint x="1004" y="330" as="targetPoint" />
          </mxGeometry>
        </mxCell>
        <mxCell id="LJgovYq5bUpr1Cc1gvmX-70" value="" style="image;aspect=fixed;perimeter=ellipsePerimeter;html=1;align=center;shadow=0;dashed=0;spacingTop=3;image=img/lib/active_directory/folder_open.svg;" parent="1" vertex="1">
          <mxGeometry x="639.9499999999999" y="350" width="46" height="50" as="geometry" />
        </mxCell>
        <mxCell id="tcYN9ih_zxDwycLLdr_d-1" value="&lt;font style=&quot;font-size: 16px;&quot;&gt;main.py&lt;/font&gt;" style="image;aspect=fixed;html=1;points=[];align=center;fontSize=12;image=img/lib/azure2/general/File.svg;" parent="1" vertex="1">
          <mxGeometry x="562.51" y="690" width="42.2" height="52" as="geometry" />
        </mxCell>
      </root>
    </mxGraphModel>
  </diagram>
</mxfile>
